<svg width="101" height="101" viewBox="0 0 101 101" fill="none" xmlns="http://www.w3.org/2000/svg">
<path d="M37.875 4.20831V16.8333M63.125 4.20831V16.8333M37.875 84.1666V96.7916M63.125 84.1666V96.7916M84.1667 37.875H96.7917M84.1667 58.9166H96.7917M4.20837 37.875H16.8334M4.20837 58.9166H16.8334M25.25 16.8333H75.75C80.3984 16.8333 84.1667 20.6016 84.1667 25.25V75.75C84.1667 80.3984 80.3984 84.1666 75.75 84.1666H25.25C20.6016 84.1666 16.8334 80.3984 16.8334 75.75V25.25C16.8334 20.6016 20.6016 16.8333 25.25 16.8333ZM37.875 37.875H63.125V63.125H37.875V37.875Z" stroke="#1E1E1E" stroke-width="4" stroke-linecap="round" stroke-linejoin="round"/>
</svg>
