<svg width="1365" height="822" viewBox="0 0 1365 822" fill="none" xmlns="http://www.w3.org/2000/svg">
<g clip-path="url(#clip0_146_508)">
<path d="M252.026 532.157L265.598 528.723C264.306 523.617 260.259 519.669 255.123 518.504C249.987 517.339 244.631 519.155 241.263 523.203L252.026 532.157ZM0 747.002C0 788.239 33.4294 821.668 74.6666 821.668C115.904 821.668 149.333 788.239 149.333 747.002C149.333 705.764 115.904 672.335 74.6666 672.335C33.4294 672.335 0 705.764 0 747.002ZM289.996 682.232L276.423 685.666C277.726 690.815 281.831 694.784 287.021 695.913C292.211 697.041 297.593 695.135 300.916 690.992L289.996 682.232ZM630.225 258.072L643.804 254.664C642.51 249.507 638.407 245.529 633.213 244.394C628.019 243.26 622.631 245.165 619.305 249.312L630.225 258.072ZM692.676 506.881L679.097 510.289C680.337 515.228 684.16 519.104 689.081 520.412C694.002 521.719 699.245 520.252 702.772 516.579L692.676 506.881ZM1078.87 104.837L1092.55 101.878C1091.46 96.82 1087.66 92.7781 1082.69 91.3673C1077.71 89.9564 1072.36 91.4066 1068.77 95.1384L1078.87 104.837ZM1120.27 296.263L1106.58 299.223C1107.74 304.571 1111.91 308.755 1117.25 309.934C1122.6 311.113 1128.14 309.071 1131.44 304.706L1120.27 296.263ZM1347.53 12.0752C1346.47 4.41674 1339.4 -0.9291 1331.74 0.134906L1206.94 17.4739C1199.28 18.5379 1193.93 25.6088 1195 33.2672C1196.06 40.9257 1203.13 46.2715 1210.79 45.2075L1321.73 29.7951L1337.14 140.73C1338.2 148.388 1345.27 153.734 1352.93 152.67C1360.59 151.606 1365.94 144.535 1364.87 136.876L1347.53 12.0752ZM137.094 670.307L126.332 661.353C126.3 661.392 126.268 661.43 126.237 661.469L137.094 670.307ZM252.026 532.157L238.453 535.591L276.423 685.666L289.996 682.232L303.568 678.798L265.598 528.723L252.026 532.157ZM289.996 682.232L300.916 690.992L641.146 266.832L630.225 258.072L619.305 249.312L279.075 673.472L289.996 682.232ZM630.225 258.072L616.647 261.48L679.097 510.289L692.676 506.881L706.255 503.473L643.804 254.664L630.225 258.072ZM692.676 506.881L702.772 516.579L1088.97 114.535L1078.87 104.837L1068.77 95.1384L682.579 497.183L692.676 506.881ZM1078.87 104.837L1065.19 107.796L1106.58 299.223L1120.27 296.263L1133.95 293.304L1092.55 101.878L1078.87 104.837ZM1120.27 296.263L1131.44 304.706L1344.83 22.4447L1333.67 14.0017L1322.5 5.55868L1109.1 287.82L1120.27 296.263ZM252.026 532.157L241.263 523.203L126.332 661.353L137.094 670.307L147.857 679.261L262.788 541.111L252.026 532.157ZM137.094 670.307L126.237 661.469L63.8089 738.164L74.6666 747.002L85.5244 755.84L147.952 679.145L137.094 670.307Z" fill="#3E5A81" fill-opacity="0.1"/>
</g>
<defs>
<clipPath id="clip0_146_508">
<rect width="1365" height="822" fill="white"/>
</clipPath>
</defs>
</svg>
