<svg width="213" height="51" viewBox="0 0 213 51" fill="none" xmlns="http://www.w3.org/2000/svg">
<rect width="213" height="51" rx="8" fill="white"/>
<path d="M19.276 40V14.8H41.92V40H36.376V19.3H24.82V40H19.276ZM48.2057 40V14.8H59.4377C60.7817 14.8 62.0057 15.004 63.1097 15.412C64.2377 15.82 65.1857 16.42 65.9537 17.212C66.7457 17.98 67.3577 18.904 67.7897 19.984C68.2217 21.04 68.4377 22.252 68.4377 23.62C68.4377 25.348 68.0417 26.86 67.2497 28.156C66.4817 29.452 65.4017 30.46 64.0097 31.18C62.6177 31.876 60.9737 32.224 59.0777 32.224H53.7497V40H48.2057ZM53.7497 19.228V27.796H58.2497C59.2097 27.796 60.0257 27.64 60.6977 27.328C61.3697 26.992 61.8857 26.512 62.2457 25.888C62.6057 25.24 62.7857 24.484 62.7857 23.62C62.7857 22.66 62.6057 21.856 62.2457 21.208C61.8857 20.56 61.3697 20.068 60.6977 19.732C60.0257 19.396 59.2097 19.228 58.2497 19.228H53.7497ZM83.6505 40.36C82.1385 40.36 80.7225 40.168 79.4025 39.784C78.1065 39.376 76.9425 38.8 75.9105 38.056C74.9025 37.288 74.0385 36.376 73.3185 35.32C72.5985 34.264 72.0465 33.076 71.6625 31.756C71.3025 30.412 71.1225 28.96 71.1225 27.4C71.1225 25.864 71.3025 24.436 71.6625 23.116C72.0465 21.772 72.5985 20.572 73.3185 19.516C74.0385 18.436 74.9025 17.524 75.9105 16.78C76.9425 16.012 78.1065 15.436 79.4025 15.052C80.7225 14.644 82.1385 14.44 83.6505 14.44C85.2105 14.44 86.6385 14.644 87.9345 15.052C89.2305 15.436 90.3825 16.012 91.3905 16.78C92.4225 17.524 93.2985 18.436 94.0185 19.516C94.7385 20.572 95.2785 21.76 95.6385 23.08C96.0225 24.4 96.2145 25.84 96.2145 27.4C96.2145 28.96 96.0225 30.4 95.6385 31.72C95.2785 33.04 94.7385 34.24 94.0185 35.32C93.2985 36.376 92.4225 37.288 91.3905 38.056C90.3825 38.8 89.2305 39.376 87.9345 39.784C86.6385 40.168 85.2105 40.36 83.6505 40.36ZM83.6505 35.86C84.5625 35.86 85.3785 35.74 86.0985 35.5C86.8425 35.236 87.4905 34.876 88.0425 34.42C88.5945 33.94 89.0505 33.364 89.4105 32.692C89.7945 31.996 90.0825 31.216 90.2745 30.352C90.4665 29.464 90.5625 28.48 90.5625 27.4C90.5625 26.344 90.4665 25.384 90.2745 24.52C90.0825 23.632 89.7945 22.84 89.4105 22.144C89.0505 21.448 88.5945 20.872 88.0425 20.416C87.4905 19.936 86.8425 19.576 86.0985 19.336C85.3785 19.072 84.5625 18.94 83.6505 18.94C82.7625 18.94 81.9465 19.072 81.2025 19.336C80.4825 19.576 79.8465 19.936 79.2945 20.416C78.7425 20.872 78.2745 21.448 77.8905 22.144C77.5305 22.84 77.2545 23.632 77.0625 24.52C76.8705 25.384 76.7745 26.344 76.7745 27.4C76.7745 28.48 76.8705 29.464 77.0625 30.352C77.2545 31.216 77.5305 31.996 77.8905 32.692C78.2745 33.364 78.7425 33.94 79.2945 34.42C79.8465 34.876 80.4825 35.236 81.2025 35.5C81.9465 35.74 82.7625 35.86 83.6505 35.86Z" fill="#3E5A81"/>
<path d="M99.4194 27.4C99.4194 25.864 99.5994 24.436 99.9594 23.116C100.343 21.772 100.895 20.572 101.615 19.516C102.335 18.46 103.199 17.56 104.207 16.816C105.215 16.048 106.355 15.46 107.627 15.052C108.899 14.644 110.267 14.44 111.731 14.44C113.819 14.44 115.655 14.788 117.239 15.484C118.823 16.156 120.131 17.152 121.163 18.472C122.219 19.768 122.963 21.376 123.395 23.296L117.815 24.376C117.599 23.224 117.227 22.24 116.699 21.424C116.171 20.608 115.487 19.996 114.647 19.588C113.831 19.156 112.859 18.94 111.731 18.94C110.891 18.94 110.123 19.072 109.427 19.336C108.731 19.576 108.107 19.936 107.555 20.416C107.027 20.872 106.571 21.448 106.187 22.144C105.827 22.816 105.551 23.596 105.359 24.484C105.167 25.372 105.071 26.344 105.071 27.4C105.071 28.48 105.167 29.464 105.359 30.352C105.551 31.216 105.827 31.996 106.187 32.692C106.571 33.388 107.027 33.976 107.555 34.456C108.107 34.912 108.731 35.26 109.427 35.5C110.123 35.74 110.891 35.86 111.731 35.86C112.907 35.86 113.915 35.644 114.755 35.212C115.595 34.78 116.279 34.156 116.807 33.34C117.335 32.5 117.695 31.48 117.887 30.28L123.395 31.324C123.059 33.292 122.363 34.948 121.307 36.292C120.275 37.636 118.943 38.656 117.311 39.352C115.703 40.024 113.843 40.36 111.731 40.36C110.435 40.36 109.223 40.228 108.095 39.964C106.991 39.676 105.971 39.268 105.035 38.74C104.123 38.188 103.307 37.54 102.587 36.796C101.891 36.028 101.303 35.164 100.823 34.204C100.367 33.22 100.019 32.164 99.7794 31.036C99.5394 29.884 99.4194 28.672 99.4194 27.4ZM127.753 40V14.8H140.101C141.349 14.8 142.453 14.956 143.413 15.268C144.397 15.556 145.225 15.976 145.897 16.528C146.593 17.08 147.121 17.764 147.481 18.58C147.841 19.372 148.021 20.272 148.021 21.28C148.021 21.976 147.913 22.648 147.697 23.296C147.481 23.92 147.145 24.496 146.689 25.024C146.257 25.528 145.729 25.972 145.105 26.356C144.745 26.572 144.361 26.776 143.953 26.968C144.673 27.16 145.333 27.436 145.933 27.796C146.893 28.372 147.625 29.104 148.129 29.992C148.657 30.88 148.921 31.9 148.921 33.052C148.921 34.492 148.585 35.728 147.913 36.76C147.241 37.792 146.257 38.596 144.961 39.172C143.689 39.724 142.153 40 140.353 40H127.753ZM133.189 29.452V35.716H139.597C140.413 35.716 141.085 35.596 141.613 35.356C142.165 35.116 142.573 34.768 142.837 34.312C143.125 33.856 143.269 33.316 143.269 32.692C143.269 31.972 143.113 31.372 142.801 30.892C142.513 30.412 142.081 30.052 141.505 29.812C140.953 29.572 140.305 29.452 139.561 29.452H133.189ZM133.189 19.084V25.168H139.093C139.645 25.168 140.137 25.096 140.569 24.952C141.025 24.808 141.409 24.604 141.721 24.34C142.033 24.076 142.261 23.752 142.405 23.368C142.573 22.984 142.657 22.564 142.657 22.108C142.657 21.436 142.513 20.884 142.225 20.452C141.961 20.02 141.565 19.684 141.037 19.444C140.509 19.204 139.873 19.084 139.129 19.084H133.189ZM153.659 40V14.8H171.443V19.3H159.203V24.952H169.679V29.38H159.203V35.5H171.731V40H153.659ZM181.946 40V19.3H173.99V14.8H195.518V19.3H187.454V40H181.946Z" fill="url(#paint0_linear_92_590)"/>
<defs>
<linearGradient id="paint0_linear_92_590" x1="16" y1="25.5" x2="197" y2="25.5" gradientUnits="userSpaceOnUse">
<stop offset="0.298077" stop-color="#3E5A81"/>
<stop offset="1" stop-color="#ED6C4F"/>
</linearGradient>
</defs>
</svg>
