<svg width="78" height="12" viewBox="0 0 78 12" fill="none" xmlns="http://www.w3.org/2000/svg">
<path d="M6.4373e-06 11.36V0.159985H10.064V11.36H7.60001V2.15998H2.46401V11.36H6.4373e-06ZM12.7188 11.36V0.159985H17.7108C18.3081 0.159985 18.8521 0.250651 19.3428 0.431985C19.8441 0.613318 20.2654 0.879985 20.6068 1.23199C20.9588 1.57332 21.2308 1.98398 21.4228 2.46398C21.6148 2.93332 21.7108 3.47199 21.7108 4.07999C21.7108 4.84799 21.5348 5.51999 21.1828 6.09598C20.8414 6.67199 20.3614 7.11999 19.7428 7.43999C19.1241 7.74932 18.3934 7.90399 17.5508 7.90399H15.1828V11.36H12.7188ZM15.1828 2.12799V5.93599H17.1828C17.6094 5.93599 17.9721 5.86665 18.2708 5.72798C18.5694 5.57865 18.7988 5.36532 18.9588 5.08799C19.1188 4.79998 19.1988 4.46398 19.1988 4.07999C19.1988 3.65332 19.1188 3.29598 18.9588 3.00799C18.7988 2.71999 18.5694 2.50132 18.2708 2.35198C17.9721 2.20265 17.6094 2.12799 17.1828 2.12799H15.1828ZM28.3331 11.52C27.6611 11.52 27.0318 11.4347 26.4451 11.264C25.8691 11.0827 25.3518 10.8267 24.8931 10.496C24.4451 10.1547 24.0611 9.74932 23.7411 9.27999C23.4211 8.81065 23.1758 8.28265 23.0051 7.69599C22.8451 7.09865 22.7651 6.45332 22.7651 5.75998C22.7651 5.07732 22.8451 4.44265 23.0051 3.85599C23.1758 3.25865 23.4211 2.72532 23.7411 2.25599C24.0611 1.77599 24.4451 1.37065 24.8931 1.03998C25.3518 0.698651 25.8691 0.442651 26.4451 0.271985C27.0318 0.0906515 27.6611 -1.52588e-05 28.3331 -1.52588e-05C29.0265 -1.52588e-05 29.6611 0.0906515 30.2371 0.271985C30.8131 0.442651 31.3251 0.698651 31.7731 1.03998C32.2318 1.37065 32.6211 1.77599 32.9411 2.25599C33.2611 2.72532 33.5011 3.25332 33.6611 3.83998C33.8318 4.42665 33.9171 5.06665 33.9171 5.75998C33.9171 6.45332 33.8318 7.09332 33.6611 7.67999C33.5011 8.26665 33.2611 8.79999 32.9411 9.27999C32.6211 9.74932 32.2318 10.1547 31.7731 10.496C31.3251 10.8267 30.8131 11.0827 30.2371 11.264C29.6611 11.4347 29.0265 11.52 28.3331 11.52ZM28.3331 9.51999C28.7385 9.51999 29.1011 9.46665 29.4211 9.35999C29.7518 9.24265 30.0398 9.08265 30.2851 8.87999C30.5305 8.66665 30.7331 8.41065 30.8931 8.11199C31.0638 7.80265 31.1918 7.45599 31.2771 7.07199C31.3625 6.67732 31.4051 6.23999 31.4051 5.75998C31.4051 5.29065 31.3625 4.86399 31.2771 4.47999C31.1918 4.08532 31.0638 3.73332 30.8931 3.42399C30.7331 3.11465 30.5305 2.85865 30.2851 2.65598C30.0398 2.44265 29.7518 2.28265 29.4211 2.17599C29.1011 2.05865 28.7385 1.99998 28.3331 1.99998C27.9385 1.99998 27.5758 2.05865 27.2451 2.17599C26.9251 2.28265 26.6425 2.44265 26.3971 2.65598C26.1518 2.85865 25.9438 3.11465 25.7731 3.42399C25.6131 3.73332 25.4905 4.08532 25.4051 4.47999C25.3198 4.86399 25.2771 5.29065 25.2771 5.75998C25.2771 6.23999 25.3198 6.67732 25.4051 7.07199C25.4905 7.45599 25.6131 7.80265 25.7731 8.11199C25.9438 8.41065 26.1518 8.66665 26.3971 8.87999C26.6425 9.08265 26.9251 9.24265 27.2451 9.35999C27.5758 9.46665 27.9385 9.51999 28.3331 9.51999Z" fill="#3E5A81"/>
<path d="M35.2026 5.75998C35.2026 5.07732 35.2826 4.44265 35.4426 3.85599C35.6133 3.25865 35.8586 2.72532 36.1786 2.25599C36.4986 1.78665 36.8826 1.38665 37.3306 1.05598C37.7786 0.714651 38.2853 0.453318 38.8506 0.271985C39.416 0.0906515 40.024 -1.52588e-05 40.6746 -1.52588e-05C41.6026 -1.52588e-05 42.4186 0.154651 43.1226 0.463984C43.8266 0.762651 44.408 1.20532 44.8666 1.79198C45.336 2.36798 45.6666 3.08265 45.8586 3.93599L43.3786 4.41599C43.2826 3.90399 43.1173 3.46665 42.8826 3.10398C42.648 2.74132 42.344 2.46932 41.9706 2.28798C41.608 2.09598 41.176 1.99998 40.6746 1.99998C40.3013 1.99998 39.96 2.05865 39.6506 2.17599C39.3413 2.28265 39.064 2.44265 38.8186 2.65598C38.584 2.85865 38.3813 3.11465 38.2106 3.42399C38.0506 3.72265 37.928 4.06932 37.8426 4.46398C37.7573 4.85865 37.7146 5.29065 37.7146 5.75998C37.7146 6.23999 37.7573 6.67732 37.8426 7.07199C37.928 7.45599 38.0506 7.80265 38.2106 8.11199C38.3813 8.42132 38.584 8.68265 38.8186 8.89599C39.064 9.09865 39.3413 9.25332 39.6506 9.35999C39.96 9.46665 40.3013 9.51999 40.6746 9.51999C41.1973 9.51999 41.6453 9.42399 42.0186 9.23199C42.392 9.03999 42.696 8.76265 42.9306 8.39999C43.1653 8.02665 43.3253 7.57332 43.4106 7.03999L45.8586 7.50399C45.7093 8.37865 45.4 9.11465 44.9306 9.71199C44.472 10.3093 43.88 10.7627 43.1546 11.072C42.44 11.3707 41.6133 11.52 40.6746 11.52C40.0986 11.52 39.56 11.4613 39.0586 11.344C38.568 11.216 38.1146 11.0347 37.6986 10.8C37.2933 10.5547 36.9306 10.2667 36.6106 9.93599C36.3013 9.59465 36.04 9.21065 35.8266 8.78399C35.624 8.34665 35.4693 7.87732 35.3626 7.37599C35.256 6.86399 35.2026 6.32532 35.2026 5.75998ZM47.6563 11.36V0.159985H53.1443C53.6989 0.159985 54.1896 0.229318 54.6163 0.367985C55.0536 0.495985 55.4216 0.682652 55.7203 0.927985C56.0296 1.17332 56.2643 1.47732 56.4243 1.83998C56.5843 2.19198 56.6643 2.59198 56.6643 3.03998C56.6643 3.34932 56.6163 3.64798 56.5203 3.93599C56.4243 4.21332 56.2749 4.46932 56.0723 4.70399C55.8803 4.92799 55.6456 5.12532 55.3683 5.29599C55.2083 5.39199 55.0376 5.48265 54.8563 5.56799C55.1763 5.65332 55.4696 5.77599 55.7363 5.93599C56.1629 6.19198 56.4883 6.51732 56.7123 6.91198C56.9469 7.30665 57.0643 7.75999 57.0643 8.27199C57.0643 8.91199 56.9149 9.46132 56.6163 9.91999C56.3176 10.3787 55.8803 10.736 55.3043 10.992C54.7389 11.2373 54.0563 11.36 53.2563 11.36H47.6563ZM50.0723 6.67199V9.45599H52.9203C53.2829 9.45599 53.5816 9.40265 53.8163 9.29599C54.0616 9.18932 54.2429 9.03465 54.3603 8.83199C54.4883 8.62932 54.5523 8.38932 54.5523 8.11199C54.5523 7.79199 54.4829 7.52532 54.3443 7.31199C54.2163 7.09865 54.0243 6.93865 53.7683 6.83198C53.5229 6.72532 53.2349 6.67199 52.9043 6.67199H50.0723ZM50.0723 2.06398V4.76798H52.6963C52.9416 4.76798 53.1603 4.73598 53.3523 4.67199C53.5549 4.60799 53.7256 4.51732 53.8643 4.39998C54.0029 4.28265 54.1043 4.13865 54.1683 3.96799C54.2429 3.79732 54.2803 3.61065 54.2803 3.40799C54.2803 3.10932 54.2163 2.86398 54.0883 2.67198C53.9709 2.47998 53.7949 2.33065 53.5603 2.22398C53.3256 2.11732 53.0429 2.06398 52.7123 2.06398H50.0723ZM59.0313 11.36V0.159985H66.9353V2.15998H61.4953V4.67199H66.1513V6.63999H61.4953V9.35999H67.0633V11.36H59.0313ZM71.4644 11.36V2.15998H67.9284V0.159985H77.4964V2.15998H73.9124V11.36H71.4644Z" fill="url(#paint0_linear_147_511)"/>
<defs>
<linearGradient id="paint0_linear_147_511" x1="-1.45599" y1="4.85999" x2="78.544" y2="4.85999" gradientUnits="userSpaceOnUse">
<stop offset="0.298077" stop-color="#3E5A81"/>
<stop offset="1" stop-color="#ED6C4F"/>
</linearGradient>
</defs>
</svg>
