<svg width="213" height="40" viewBox="0 0 213 40" fill="none" xmlns="http://www.w3.org/2000/svg">
<path d="M19.276 36V10.8H41.92V36H36.376V15.3H24.82V36H19.276ZM48.2057 36V10.8H59.4377C60.7817 10.8 62.0057 11.004 63.1097 11.412C64.2377 11.82 65.1857 12.42 65.9537 13.212C66.7457 13.98 67.3577 14.904 67.7897 15.984C68.2217 17.04 68.4377 18.252 68.4377 19.62C68.4377 21.348 68.0417 22.86 67.2497 24.156C66.4817 25.452 65.4017 26.46 64.0097 27.18C62.6177 27.876 60.9737 28.224 59.0777 28.224H53.7497V36H48.2057ZM53.7497 15.228V23.796H58.2497C59.2097 23.796 60.0257 23.64 60.6977 23.328C61.3697 22.992 61.8857 22.512 62.2457 21.888C62.6057 21.24 62.7857 20.484 62.7857 19.62C62.7857 18.66 62.6057 17.856 62.2457 17.208C61.8857 16.56 61.3697 16.068 60.6977 15.732C60.0257 15.396 59.2097 15.228 58.2497 15.228H53.7497ZM83.6505 36.36C82.1385 36.36 80.7225 36.168 79.4025 35.784C78.1065 35.376 76.9425 34.8 75.9105 34.056C74.9025 33.288 74.0385 32.376 73.3185 31.32C72.5985 30.264 72.0465 29.076 71.6625 27.756C71.3025 26.412 71.1225 24.96 71.1225 23.4C71.1225 21.864 71.3025 20.436 71.6625 19.116C72.0465 17.772 72.5985 16.572 73.3185 15.516C74.0385 14.436 74.9025 13.524 75.9105 12.78C76.9425 12.012 78.1065 11.436 79.4025 11.052C80.7225 10.644 82.1385 10.44 83.6505 10.44C85.2105 10.44 86.6385 10.644 87.9345 11.052C89.2305 11.436 90.3825 12.012 91.3905 12.78C92.4225 13.524 93.2985 14.436 94.0185 15.516C94.7385 16.572 95.2785 17.76 95.6385 19.08C96.0225 20.4 96.2145 21.84 96.2145 23.4C96.2145 24.96 96.0225 26.4 95.6385 27.72C95.2785 29.04 94.7385 30.24 94.0185 31.32C93.2985 32.376 92.4225 33.288 91.3905 34.056C90.3825 34.8 89.2305 35.376 87.9345 35.784C86.6385 36.168 85.2105 36.36 83.6505 36.36ZM83.6505 31.86C84.5625 31.86 85.3785 31.74 86.0985 31.5C86.8425 31.236 87.4905 30.876 88.0425 30.42C88.5945 29.94 89.0505 29.364 89.4105 28.692C89.7945 27.996 90.0825 27.216 90.2745 26.352C90.4665 25.464 90.5625 24.48 90.5625 23.4C90.5625 22.344 90.4665 21.384 90.2745 20.52C90.0825 19.632 89.7945 18.84 89.4105 18.144C89.0505 17.448 88.5945 16.872 88.0425 16.416C87.4905 15.936 86.8425 15.576 86.0985 15.336C85.3785 15.072 84.5625 14.94 83.6505 14.94C82.7625 14.94 81.9465 15.072 81.2025 15.336C80.4825 15.576 79.8465 15.936 79.2945 16.416C78.7425 16.872 78.2745 17.448 77.8905 18.144C77.5305 18.84 77.2545 19.632 77.0625 20.52C76.8705 21.384 76.7745 22.344 76.7745 23.4C76.7745 24.48 76.8705 25.464 77.0625 26.352C77.2545 27.216 77.5305 27.996 77.8905 28.692C78.2745 29.364 78.7425 29.94 79.2945 30.42C79.8465 30.876 80.4825 31.236 81.2025 31.5C81.9465 31.74 82.7625 31.86 83.6505 31.86Z" fill="#3E5A81"/>
<path d="M99.4194 23.4C99.4194 21.864 99.5994 20.436 99.9594 19.116C100.343 17.772 100.895 16.572 101.615 15.516C102.335 14.46 103.199 13.56 104.207 12.816C105.215 12.048 106.355 11.46 107.627 11.052C108.899 10.644 110.267 10.44 111.731 10.44C113.819 10.44 115.655 10.788 117.239 11.484C118.823 12.156 120.131 13.152 121.163 14.472C122.219 15.768 122.963 17.376 123.395 19.296L117.815 20.376C117.599 19.224 117.227 18.24 116.699 17.424C116.171 16.608 115.487 15.996 114.647 15.588C113.831 15.156 112.859 14.94 111.731 14.94C110.891 14.94 110.123 15.072 109.427 15.336C108.731 15.576 108.107 15.936 107.555 16.416C107.027 16.872 106.571 17.448 106.187 18.144C105.827 18.816 105.551 19.596 105.359 20.484C105.167 21.372 105.071 22.344 105.071 23.4C105.071 24.48 105.167 25.464 105.359 26.352C105.551 27.216 105.827 27.996 106.187 28.692C106.571 29.388 107.027 29.976 107.555 30.456C108.107 30.912 108.731 31.26 109.427 31.5C110.123 31.74 110.891 31.86 111.731 31.86C112.907 31.86 113.915 31.644 114.755 31.212C115.595 30.78 116.279 30.156 116.807 29.34C117.335 28.5 117.695 27.48 117.887 26.28L123.395 27.324C123.059 29.292 122.363 30.948 121.307 32.292C120.275 33.636 118.943 34.656 117.311 35.352C115.703 36.024 113.843 36.36 111.731 36.36C110.435 36.36 109.223 36.228 108.095 35.964C106.991 35.676 105.971 35.268 105.035 34.74C104.123 34.188 103.307 33.54 102.587 32.796C101.891 32.028 101.303 31.164 100.823 30.204C100.367 29.22 100.019 28.164 99.7794 27.036C99.5394 25.884 99.4194 24.672 99.4194 23.4ZM127.753 36V10.8H140.101C141.349 10.8 142.453 10.956 143.413 11.268C144.397 11.556 145.225 11.976 145.897 12.528C146.593 13.08 147.121 13.764 147.481 14.58C147.841 15.372 148.021 16.272 148.021 17.28C148.021 17.976 147.913 18.648 147.697 19.296C147.481 19.92 147.145 20.496 146.689 21.024C146.257 21.528 145.729 21.972 145.105 22.356C144.745 22.572 144.361 22.776 143.953 22.968C144.673 23.16 145.333 23.436 145.933 23.796C146.893 24.372 147.625 25.104 148.129 25.992C148.657 26.88 148.921 27.9 148.921 29.052C148.921 30.492 148.585 31.728 147.913 32.76C147.241 33.792 146.257 34.596 144.961 35.172C143.689 35.724 142.153 36 140.353 36H127.753ZM133.189 25.452V31.716H139.597C140.413 31.716 141.085 31.596 141.613 31.356C142.165 31.116 142.573 30.768 142.837 30.312C143.125 29.856 143.269 29.316 143.269 28.692C143.269 27.972 143.113 27.372 142.801 26.892C142.513 26.412 142.081 26.052 141.505 25.812C140.953 25.572 140.305 25.452 139.561 25.452H133.189ZM133.189 15.084V21.168H139.093C139.645 21.168 140.137 21.096 140.569 20.952C141.025 20.808 141.409 20.604 141.721 20.34C142.033 20.076 142.261 19.752 142.405 19.368C142.573 18.984 142.657 18.564 142.657 18.108C142.657 17.436 142.513 16.884 142.225 16.452C141.961 16.02 141.565 15.684 141.037 15.444C140.509 15.204 139.873 15.084 139.129 15.084H133.189ZM153.659 36V10.8H171.443V15.3H159.203V20.952H169.679V25.38H159.203V31.5H171.731V36H153.659ZM181.946 36V15.3H173.99V10.8H195.518V15.3H187.454V36H181.946Z" fill="url(#paint0_linear_147_513)"/>
<defs>
<linearGradient id="paint0_linear_147_513" x1="16" y1="20" x2="197" y2="20" gradientUnits="userSpaceOnUse">
<stop offset="0.298077" stop-color="#3E5A81"/>
<stop offset="1" stop-color="#ED6C4F"/>
</linearGradient>
</defs>
</svg>
