<svg width="196" height="29" viewBox="0 0 196 29" fill="none" xmlns="http://www.w3.org/2000/svg">
<path d="M0.000107646 28.4V0.400023H25.1601V28.4H19.0001V5.40002H6.16011V28.4H0.000107646ZM32.172 28.4V0.400023H44.652C46.1453 0.400023 47.5053 0.626689 48.732 1.08002C49.9853 1.53336 51.0387 2.20002 51.892 3.08002C52.772 3.93336 53.452 4.96002 53.932 6.16002C54.412 7.33336 54.652 8.68002 54.652 10.2C54.652 12.12 54.212 13.8 53.332 15.24C52.4786 16.68 51.2786 17.8 49.732 18.6C48.1853 19.3734 46.3587 19.76 44.252 19.76H38.332V28.4H32.172ZM38.332 5.32002V14.84H43.332C44.3986 14.84 45.3053 14.6667 46.052 14.32C46.7986 13.9467 47.372 13.4134 47.772 12.72C48.172 12 48.372 11.16 48.372 10.2C48.372 9.13336 48.172 8.24002 47.772 7.52002C47.372 6.80002 46.7986 6.25336 46.052 5.88002C45.3053 5.50669 44.3986 5.32002 43.332 5.32002H38.332ZM71.5829 28.8C69.9029 28.8 68.3296 28.5867 66.8629 28.16C65.4229 27.7067 64.1296 27.0667 62.9829 26.24C61.8629 25.3867 60.9029 24.3734 60.1029 23.2C59.3029 22.0267 58.6896 20.7067 58.2629 19.24C57.8629 17.7467 57.6629 16.1334 57.6629 14.4C57.6629 12.6934 57.8629 11.1067 58.2629 9.64002C58.6896 8.14669 59.3029 6.81336 60.1029 5.64002C60.9029 4.44002 61.8629 3.42669 62.9829 2.60002C64.1296 1.74669 65.4229 1.10669 66.8629 0.680024C68.3296 0.22669 69.9029 2.28882e-05 71.5829 2.28882e-05C73.3163 2.28882e-05 74.9029 0.22669 76.3429 0.680024C77.7829 1.10669 79.0629 1.74669 80.1829 2.60002C81.3296 3.42669 82.3029 4.44002 83.1029 5.64002C83.9029 6.81336 84.5029 8.13336 84.9029 9.60002C85.3296 11.0667 85.5429 12.6667 85.5429 14.4C85.5429 16.1334 85.3296 17.7334 84.9029 19.2C84.5029 20.6667 83.9029 22 83.1029 23.2C82.3029 24.3734 81.3296 25.3867 80.1829 26.24C79.0629 27.0667 77.7829 27.7067 76.3429 28.16C74.9029 28.5867 73.3163 28.8 71.5829 28.8ZM71.5829 23.8C72.5963 23.8 73.5029 23.6667 74.3029 23.4C75.1296 23.1067 75.8496 22.7067 76.4629 22.2C77.0763 21.6667 77.5829 21.0267 77.9829 20.28C78.4096 19.5067 78.7296 18.64 78.9429 17.68C79.1563 16.6934 79.2629 15.6 79.2629 14.4C79.2629 13.2267 79.1563 12.16 78.9429 11.2C78.7296 10.2134 78.4096 9.33336 77.9829 8.56002C77.5829 7.78669 77.0763 7.14669 76.4629 6.64002C75.8496 6.10669 75.1296 5.70669 74.3029 5.44002C73.5029 5.14669 72.5963 5.00002 71.5829 5.00002C70.5963 5.00002 69.6896 5.14669 68.8629 5.44002C68.0629 5.70669 67.3563 6.10669 66.7429 6.64002C66.1296 7.14669 65.6096 7.78669 65.1829 8.56002C64.7829 9.33336 64.4763 10.2134 64.2629 11.2C64.0496 12.16 63.9429 13.2267 63.9429 14.4C63.9429 15.6 64.0496 16.6934 64.2629 17.68C64.4763 18.64 64.7829 19.5067 65.1829 20.28C65.6096 21.0267 66.1296 21.6667 66.7429 22.2C67.3563 22.7067 68.0629 23.1067 68.8629 23.4C69.6896 23.6667 70.5963 23.8 71.5829 23.8Z" fill="#3E5A81"/>
<path d="M89.1317 14.4C89.1317 12.6934 89.3317 11.1067 89.7317 9.64002C90.1583 8.14669 90.7717 6.81336 91.5717 5.64002C92.3717 4.46669 93.3317 3.46669 94.4517 2.64002C95.5717 1.78669 96.8383 1.13336 98.2517 0.680024C99.665 0.22669 101.185 2.28882e-05 102.812 2.28882e-05C105.132 2.28882e-05 107.172 0.386689 108.932 1.16002C110.692 1.90669 112.145 3.01336 113.292 4.48002C114.465 5.92002 115.292 7.70669 115.772 9.84002L109.572 11.04C109.332 9.76002 108.918 8.66669 108.332 7.76002C107.745 6.85336 106.985 6.17336 106.052 5.72002C105.145 5.24002 104.065 5.00002 102.812 5.00002C101.878 5.00002 101.025 5.14669 100.252 5.44002C99.4783 5.70669 98.785 6.10669 98.1717 6.64002C97.585 7.14669 97.0783 7.78669 96.6517 8.56002C96.2517 9.30669 95.945 10.1734 95.7317 11.16C95.5183 12.1467 95.4117 13.2267 95.4117 14.4C95.4117 15.6 95.5183 16.6934 95.7317 17.68C95.945 18.64 96.2517 19.5067 96.6517 20.28C97.0783 21.0534 97.585 21.7067 98.1717 22.24C98.785 22.7467 99.4783 23.1334 100.252 23.4C101.025 23.6667 101.878 23.8 102.812 23.8C104.118 23.8 105.238 23.56 106.172 23.08C107.105 22.6 107.865 21.9067 108.452 21C109.038 20.0667 109.438 18.9334 109.652 17.6L115.772 18.76C115.398 20.9467 114.625 22.7867 113.452 24.28C112.305 25.7734 110.825 26.9067 109.012 27.68C107.225 28.4267 105.158 28.8 102.812 28.8C101.372 28.8 100.025 28.6534 98.7717 28.36C97.545 28.04 96.4117 27.5867 95.3717 27C94.3583 26.3867 93.4517 25.6667 92.6517 24.84C91.8783 23.9867 91.225 23.0267 90.6917 21.96C90.185 20.8667 89.7983 19.6934 89.5317 18.44C89.265 17.16 89.1317 15.8134 89.1317 14.4ZM120.641 28.4V0.400023H134.361C135.747 0.400023 136.974 0.573356 138.041 0.920023C139.134 1.24002 140.054 1.70669 140.801 2.32002C141.574 2.93336 142.161 3.69336 142.561 4.60002C142.961 5.48002 143.161 6.48002 143.161 7.60002C143.161 8.37336 143.041 9.12002 142.801 9.84002C142.561 10.5334 142.187 11.1734 141.681 11.76C141.201 12.32 140.614 12.8134 139.921 13.24C139.521 13.48 139.094 13.7067 138.641 13.92C139.441 14.1334 140.174 14.44 140.841 14.84C141.907 15.48 142.721 16.2934 143.281 17.28C143.867 18.2667 144.161 19.4 144.161 20.68C144.161 22.28 143.787 23.6534 143.041 24.8C142.294 25.9467 141.201 26.84 139.761 27.48C138.347 28.0934 136.641 28.4 134.641 28.4H120.641ZM126.681 16.68V23.64H133.801C134.707 23.64 135.454 23.5067 136.041 23.24C136.654 22.9734 137.107 22.5867 137.401 22.08C137.721 21.5734 137.881 20.9734 137.881 20.28C137.881 19.48 137.707 18.8134 137.361 18.28C137.041 17.7467 136.561 17.3467 135.921 17.08C135.307 16.8134 134.587 16.68 133.761 16.68H126.681ZM126.681 5.16002V11.92H133.241C133.854 11.92 134.401 11.84 134.881 11.68C135.387 11.52 135.814 11.2934 136.161 11C136.507 10.7067 136.761 10.3467 136.921 9.92002C137.107 9.49336 137.201 9.02669 137.201 8.52002C137.201 7.77336 137.041 7.16002 136.721 6.68002C136.427 6.20002 135.987 5.82669 135.401 5.56002C134.814 5.29336 134.107 5.16002 133.281 5.16002H126.681ZM149.453 28.4V0.400023H169.213V5.40002H155.613V11.68H167.253V16.6H155.613V23.4H169.533V28.4H149.453ZM180.911 28.4V5.40002H172.071V0.400023H195.991V5.40002H187.031V28.4H180.911Z" fill="url(#paint0_linear_147_516)"/>
<defs>
<linearGradient id="paint0_linear_147_516" x1="-3.63989" y1="12.4" x2="197.36" y2="12.4" gradientUnits="userSpaceOnUse">
<stop offset="0.298077" stop-color="#3E5A81"/>
<stop offset="1" stop-color="#ED6C4F"/>
</linearGradient>
</defs>
</svg>
